<svg id="Layer_1" data-name="Layer 1" xmlns="http://www.w3.org/2000/svg" xmlns:xlink="http://www.w3.org/1999/xlink" viewBox="0 0 196.29 273.99"><defs><style>.cls-1{stroke-miterlimit:10;stroke-width:9px;fill:url(#linear-gradient);stroke:url(#linear-gradient-2);}.cls-2{font-size:128px;fill:#f7ec13;font-family:Apple-Chancery, Apple Chancery;}</style><linearGradient id="linear-gradient" x1="16.36" y1="110.86" x2="203.64" y2="110.86" gradientUnits="userSpaceOnUse"><stop offset="0" stop-color="#a06e1b"/><stop offset="0.5" stop-color="#c18c1b"/><stop offset="1" stop-color="#7a5e1b"/></linearGradient><linearGradient id="linear-gradient-2" x1="11.86" y1="110.86" x2="208.14" y2="110.86" gradientUnits="userSpaceOnUse"><stop offset="0.15" stop-color="#636466"/><stop offset="0.5" stop-color="#fff"/><stop offset="1" stop-color="#4a4b4c"/></linearGradient></defs><title>hufflepuff</title><path class="cls-1" d="M202,75.16c3-4.45,1.81-9-2.75-10.44-8.32-2.58-8.39-20-22.16-12.12a19.34,19.34,0,0,1-6.27,2.31A3.7,3.7,0,0,1,166.37,52c-.5-2.41,1.2-3,3.22-3.82,9.31-4,10.35-11.55,1.89-17-13.48-8.62-28.31-14.45-43.63-19-4.65-1.39-9.14-3.3-13.7-5h-9.76C89,14.16,72.09,17.31,57.34,25.89c-3.37,2-7,3.61-10.07,5.93C40.91,36.57,41.44,44.45,48.55,48c2.46,1.22,5.52,1.32,3.78,4.88-1.41,2.87-4.25,2-6.93,1.49-3.91-.75-6.27-7.78-10.85-3.82A169.35,169.35,0,0,0,17.09,68.75c-1.74,2,0,5.06,1.3,7.31,9.16,15.69,11.25,33.73,16.69,50.64,1.69,5.25,2.2,11.06-5.17,14.7-5.7,2.81-5.88,8.23-2.27,14.16,17.06,28,40.59,48,71.55,58.93,8.39-.07,16.85-.67,25.15-1.18l.23-.08c29.43-11.8,51.86-31.63,68.17-58.69,3.13-5.18,2.52-9.85-2.06-12.82-7.35-4.75-7.5-11.48-5.14-18C191.37,107.68,192,89.82,202,75.16Z" transform="translate(-11.86 29.4)"/><text class="cls-2" transform="translate(33.3 187.51)">H</text><text x="-11.86" y="29.4"></text></svg>