<svg id="Layer_1" data-name="Layer 1" xmlns="http://www.w3.org/2000/svg" xmlns:xlink="http://www.w3.org/1999/xlink" viewBox="0 0 196.29 216.29"><defs><style>.cls-1{stroke-miterlimit:10;stroke-width:9px;fill:url(#linear-gradient);stroke:url(#linear-gradient-2);}.cls-2{font-size:150px;fill:#f8971d;font-family:Apple-Chancery, Apple Chancery;}</style><linearGradient id="linear-gradient" x1="21.77" y1="110" x2="209.05" y2="110" gradientUnits="userSpaceOnUse"><stop offset="0" stop-color="#9c171a"/><stop offset="0.5" stop-color="#d71a25"/><stop offset="1" stop-color="#75130c"/></linearGradient><linearGradient id="linear-gradient-2" x1="17.27" y1="110" x2="213.55" y2="110" gradientUnits="userSpaceOnUse"><stop offset="0.15" stop-color="#636466"/><stop offset="0.5" stop-color="#fff"/><stop offset="1" stop-color="#4a4b4c"/></linearGradient></defs><title>gryffindor</title><path class="cls-1" d="M207.39,74.3c3-4.45,1.81-9-2.75-10.44-8.32-2.58-8.39-20-22.16-12.12a19.34,19.34,0,0,1-6.27,2.31,3.7,3.7,0,0,1-4.43-2.93c-.5-2.41,1.2-3,3.22-3.82,9.31-4,10.35-11.55,1.89-17-13.48-8.62-28.31-14.45-43.63-19-4.65-1.39-9.14-3.3-13.7-5H109.8C94.41,13.31,77.5,16.46,62.75,25c-3.37,2-7,3.61-10.07,5.93C46.32,35.72,46.85,43.59,54,47.13c2.46,1.22,5.52,1.32,3.78,4.88-1.41,2.87-4.25,2-6.93,1.49-3.91-.75-6.27-7.78-10.85-3.82A169.35,169.35,0,0,0,22.5,67.89c-1.74,2,0,5.06,1.3,7.31C33,90.89,35.06,108.93,40.5,125.85c1.69,5.25,2.2,11.06-5.17,14.7-5.7,2.81-5.88,8.23-2.27,14.16,17.06,28,40.59,48,71.55,58.93,8.39-.07,16.85-.67,25.15-1.18l.23-.08c29.43-11.8,51.86-31.63,68.17-58.69,3.13-5.18,2.52-9.85-2.06-12.82-7.35-4.75-7.5-11.48-5.14-18C196.78,106.82,197.38,89,207.39,74.3Z" transform="translate(-17.27 -1.86)"/><text class="cls-2" transform="translate(41.73 140.88)">G</text></svg>